<svg id="Layer_1" data-name="Layer 1" xmlns="http://www.w3.org/2000/svg" xmlns:xlink="http://www.w3.org/1999/xlink" viewBox="0 0 1520 380.44"><defs><style>.cls-1{fill:url(#linear-gradient);}.cls-2{fill:url(#linear-gradient-3);}.cls-3{fill:#fff;}.cls-4{fill:#41dd9e;}</style><linearGradient id="linear-gradient" x1="79.27" y1="312.79" x2="388.83" y2="312.79" gradientUnits="userSpaceOnUse"><stop offset="0" stop-color="#43e899"/><stop offset="1" stop-color="#3eb4b6"/></linearGradient><linearGradient id="linear-gradient-3" x1="79.27" y1="174.26" x2="388.83" y2="174.26" xlink:href="#linear-gradient"/></defs><polygon class="cls-1" points="280.03 288.61 280.01 288.61 280.01 280.62 247.84 280.62 247.84 312.79 247.86 312.79 247.86 313.05 280.01 313.05 280.01 344.96 312.19 344.96 312.19 312.79 280.03 312.79 280.03 288.61"/><polygon class="cls-1" points="215.69 288.61 215.67 288.61 215.67 280.62 183.5 280.62 183.5 288.61 183.48 288.61 183.48 312.79 151.33 312.79 151.33 344.96 183.5 344.96 183.5 313.05 215.67 313.05 215.67 344.96 247.84 344.96 247.84 312.79 215.69 312.79 215.69 288.61"/><path class="cls-2" d="M303.69,61.68a127.07,127.07,0,0,0-22.39,2,96.56,96.56,0,0,0-164,56.42,96.59,96.59,0,0,0,6.79,193h27.23V288.61H124.08a72.14,72.14,0,0,1-6.6-144h.1c6.6,45.56,47.76,84.72,95.82,88.38,4.54.34,8.89.49,13,.49,31.53,0,53.68-9.19,70.2-19a32.8,32.8,0,1,0-17.26-28.89,33.65,33.65,0,0,0,1.47,9.73c-15.2,8.36-35.88,15.5-65.61,13.25-40.18-3-74.15-38.08-74.25-76.51v-.05A72.14,72.14,0,0,1,253.39,72.19,126.41,126.41,0,0,0,214,99.32H214a29.91,29.91,0,0,0-7.33-.88,32.8,32.8,0,1,0,32.8,32.8,31.85,31.85,0,0,0-5.18-17.55A101.13,101.13,0,0,1,279.83,89h.05a102.49,102.49,0,0,1,23.81-2.84,101.23,101.23,0,0,1,8.5,202.09v24.55a125.69,125.69,0,0,0-8.5-251.08Zm8.5,110.72A13.25,13.25,0,1,1,299,185.65,13.29,13.29,0,0,1,312.19,172.4ZM206.65,144.49a13.25,13.25,0,1,1,13.25-13.25A13.26,13.26,0,0,1,206.65,144.49Z"/><path class="cls-3" d="M484.13,284.25V96.75h32.25v187.5Z"/><path class="cls-3" d="M626.12,142.4q24.68,0,39.74,15t15.06,39.68v87.18H650.54V207q0-15.93-9.43-25.61T616,171.72q-16.47,0-26.54,9.82t-10.09,26v76.7H548.89V145.71h30.52v17.92Q596.53,142.39,626.12,142.4Z"/><path class="cls-3" d="M755.9,287.56q-33.43,0-57.59-21.23l15.79-21.49q17.11,16.32,41.27,16.32,12.07,0,19.77-4.05t7.7-11.21a10.19,10.19,0,0,0-1.66-5.71,16.62,16.62,0,0,0-4-4.24,26.61,26.61,0,0,0-6.83-3.32c-3-1.06-5.65-1.9-7.9-2.52s-5.42-1.42-9.49-2.39-7.39-1.79-10-2.45-5.8-1.66-9.69-3a69.73,69.73,0,0,1-9.62-4,60.68,60.68,0,0,1-8.16-5.31,29.17,29.17,0,0,1-6.9-7.16,38.31,38.31,0,0,1-4.25-9.16A37.62,37.62,0,0,1,702.69,185q0-13.8,7.7-23.62a44.73,44.73,0,0,1,19.9-14.4,78.24,78.24,0,0,1,27.6-4.57q30.39,0,52.68,18.44l-16.05,21.5q-15.93-13.54-36.1-13.54-10.74,0-17.71,3.58t-7,10.49a11.82,11.82,0,0,0,.93,4.78,9.74,9.74,0,0,0,3.25,3.84,41.08,41.08,0,0,0,4.45,2.92,32.22,32.22,0,0,0,6.3,2.46c2.78.84,5.13,1.5,7,2s4.62,1.12,8.16,1.92q6,1.33,9.89,2.32t9.68,2.92a63.37,63.37,0,0,1,9.62,4,60.29,60.29,0,0,1,8.1,5.31,30.94,30.94,0,0,1,6.83,7,34.18,34.18,0,0,1,4.25,9.09A38.43,38.43,0,0,1,813.89,243a38.85,38.85,0,0,1-7.83,24.22,46.83,46.83,0,0,1-20.77,15.32Q772.36,287.56,755.9,287.56Z"/><path class="cls-3" d="M943.14,145.71h30.52V284.25H943.14V264.34q-18.32,23.22-48.57,23.22A66,66,0,0,1,835.19,252a82.1,82.1,0,0,1,0-74,66,66,0,0,1,59.38-35.56q30.39,0,48.57,23.09Zm-42.6,112.4q18.32,0,30.46-12.41T943.14,215q0-18.45-12.14-30.85t-30.46-12.41q-18.43,0-30.72,12.41T857.55,215q0,18.32,12.27,30.72T900.54,258.11Z"/><path class="cls-3" d="M1081.55,142.4q24.67,0,39.74,15t15.06,39.68v87.18H1106V207q0-15.93-9.42-25.61t-25.08-9.69q-16.45,0-26.54,9.82t-10.08,26v76.7h-30.52V145.71h30.52v17.92Q1052,142.39,1081.55,142.4Z"/><path class="cls-4" d="M1179.88,122.23A19.06,19.06,0,0,1,1160.5,103a18.43,18.43,0,0,1,5.58-13.8,20.36,20.36,0,0,1,27.73,0,18.46,18.46,0,0,1,5.57,13.8,18.54,18.54,0,0,1-5.57,13.73A19,19,0,0,1,1179.88,122.23Z"/><rect class="cls-3" x="1164.62" y="145.71" width="30.52" height="138.53"/><path class="cls-3" d="M1291.48,287.56q-31.73,0-53-20.83T1217.3,215q0-30.91,21.23-51.75t53-20.83a76.37,76.37,0,0,1,37.75,9.48A69.46,69.46,0,0,1,1356,178a75.4,75.4,0,0,1,0,73.92,69.46,69.46,0,0,1-26.74,26.14A76.37,76.37,0,0,1,1291.48,287.56Zm-30.66-41.86q12.35,12.41,30.66,12.41t30.45-12.41q12.13-12.4,12.14-30.72t-12.14-30.85q-12.14-12.4-30.45-12.41t-30.66,12.47q-12.33,12.48-12.34,30.79T1260.82,245.7Z"/><path class="cls-3" d="M1434.53,287.56q-33.45,0-57.59-21.23l15.79-21.49q17.12,16.32,41.27,16.32,12.06,0,19.77-4.05t7.69-11.21a10.18,10.18,0,0,0-1.65-5.71,16.65,16.65,0,0,0-4-4.24,26.28,26.28,0,0,0-6.83-3.32q-4.52-1.59-7.89-2.52c-2.26-.62-5.43-1.42-9.49-2.39s-7.39-1.79-9.95-2.45-5.8-1.66-9.69-3a69.21,69.21,0,0,1-9.62-4,60.68,60.68,0,0,1-8.16-5.31,29.17,29.17,0,0,1-6.9-7.16,38.31,38.31,0,0,1-4.25-9.16,37.62,37.62,0,0,1-1.72-11.68q0-13.8,7.69-23.62a44.76,44.76,0,0,1,19.91-14.4,78.16,78.16,0,0,1,27.6-4.57q30.38,0,52.68,18.44l-16.06,21.5q-15.92-13.54-36.09-13.54-10.75,0-17.72,3.58t-7,10.49a11.82,11.82,0,0,0,.93,4.78,9.66,9.66,0,0,0,3.25,3.84,41,41,0,0,0,4.44,2.92,32.62,32.62,0,0,0,6.31,2.46q4.17,1.26,7,2t8.16,1.92q6,1.33,9.88,2.32t9.69,2.92a63.37,63.37,0,0,1,9.62,4,60.93,60.93,0,0,1,8.1,5.31,31.15,31.15,0,0,1,6.83,7,34.49,34.49,0,0,1,4.25,9.09,41.23,41.23,0,0,1-6.18,35.77,46.86,46.86,0,0,1-20.76,15.32A80.53,80.53,0,0,1,1434.53,287.56Z"/></svg>