<svg id="Layer_1" data-name="Layer 1" xmlns="http://www.w3.org/2000/svg" xmlns:xlink="http://www.w3.org/1999/xlink" viewBox="0 0 1570 289.95"><defs><style>.cls-1{fill:#fff;}.cls-2{fill:url(#linear-gradient);}</style><linearGradient id="linear-gradient" x1="13.31" y1="144.97" x2="280.21" y2="144.97" gradientUnits="userSpaceOnUse"><stop offset="0" stop-color="#0059dc"/><stop offset="1" stop-color="#00de9f"/></linearGradient></defs><path class="cls-1" d="M421.86,125.73q10.33,3.7,16.84,13.93a41.62,41.62,0,0,1,6.52,22.86q0,16.74-11.33,27.57t-28.47,10.83H334.14V59.26h66.57q15.93,0,26.77,10.22T438.3,95.35a36.17,36.17,0,0,1-4.61,18A31.46,31.46,0,0,1,421.86,125.73Zm-28.17-41h-32V115.9h32a15.48,15.48,0,0,0,15.44-15.64,15.15,15.15,0,0,0-4.41-11.08A14.9,14.9,0,0,0,393.69,84.72Zm4.71,90.73A17.09,17.09,0,0,0,411,170.29a17.36,17.36,0,0,0,5.11-12.68A17.47,17.47,0,0,0,398.4,140H361.71v35.49Z"/><path class="cls-1" d="M571.65,59.26h35V200.92H578.27V103.57l-39.2,71.88H523l-39-71.88v97.35H455.66V59.26h35.39L531.25,133Z"/><path class="cls-1" d="M707.65,59.26a75.92,75.92,0,0,1,28.67,5.41,69.63,69.63,0,0,1,23,14.79A67.91,67.91,0,0,1,774.42,102a74.25,74.25,0,0,1,0,56.14,67.15,67.15,0,0,1-38.1,37.39,75.93,75.93,0,0,1-28.67,5.42H652.21V59.26Zm-.6,115q18.74,0,31.23-12.63T750.76,130q0-18.94-12.48-31.53T707.05,85.93H680.58v88.32Z"/><path class="cls-1" d="M864.65,96.25h29.78L842.7,219.16a38,38,0,0,1-12.93,17,31.55,31.55,0,0,1-18.95,6.27,40.82,40.82,0,0,1-14.69-2.91,40,40,0,0,1-12.78-7.62l10.22-20.95a16.93,16.93,0,0,0,12.74,5.61q8.12,0,11.93-8.22l4.31-9L779.84,96.25h30.37l27.37,71.18Z"/><path class="cls-1" d="M959.9,93.75q18.54,0,29.73,11.08t11.17,29.52v66.57H974V143q0-10.62-6.27-17t-16.69-6.36q-10.94,0-17.7,6.57t-6.76,17.29v57.45H900V96.25h26.67v11.63Q939.25,93.75,959.9,93.75Z"/><path class="cls-1" d="M1095.65,96.25h26.67V200.92h-26.67V188.39a44.32,44.32,0,0,1-34.09,15q-21.86,0-36.49-15.73t-14.63-39.11q0-23.36,14.63-39.1t36.49-15.73q20.46,0,34.09,14.93Zm-29,81.31q12.43,0,20.7-8.32a29.93,29.93,0,0,0,0-41.31q-8.27-8.31-20.7-8.32a27.73,27.73,0,0,0-20.55,8.32,28.18,28.18,0,0,0-8.22,20.65,28.19,28.19,0,0,0,8.22,20.66A27.69,27.69,0,0,0,1066.68,177.56Z"/><path class="cls-1" d="M1265.69,93.75q17.74,0,28.42,10.62t10.68,28.37v68.18H1278V140.77q0-9.63-5.56-15.39t-14.89-5.77q-9.83,0-15.94,5.91t-6.12,15.64v59.76h-26.66V140.77q0-9.54-5.67-15.34t-15.09-5.82q-9.72,0-15.84,6t-6.11,15.58v59.76h-26.67V96.25h26.67v10.83q11.82-13.33,31-13.33a41.08,41.08,0,0,1,19.4,4.45A34.45,34.45,0,0,1,1230,110.79Q1242.93,93.75,1265.69,93.75Z"/><path class="cls-1" d="M1345.65,76a17.32,17.32,0,0,1-24,0,16,16,0,0,1-4.86-11.83,16,16,0,0,1,4.86-11.83,17.32,17.32,0,0,1,24,0,16,16,0,0,1,4.86,11.83A16,16,0,0,1,1345.65,76Zm-25.32,124.92V96.25H1347V200.92Z"/><path class="cls-1" d="M1414.18,203.42q-24,0-40.15-15.73t-16.19-39.11q0-23.36,16.19-39.1t40.15-15.73a57.56,57.56,0,0,1,28.32,7,52.16,52.16,0,0,1,19.9,19l-23.26,13.94A27.26,27.26,0,0,0,1429,123.47a28.68,28.68,0,0,0-14.79-3.86,27.73,27.73,0,0,0-20.55,8.32,30.06,30.06,0,0,0,0,41.31,27.69,27.69,0,0,0,20.55,8.32,28.73,28.73,0,0,0,14.74-3.86,26.88,26.88,0,0,0,10.22-10.38l23.26,13.93a51.83,51.83,0,0,1-19.9,19.15A57.46,57.46,0,0,1,1414.18,203.42Z"/><path class="cls-1" d="M1511.87,203.42q-25.45,0-44.11-16l12.94-17.64a45.17,45.17,0,0,0,30.57,11.63q8.22,0,13.39-2.61t5.16-7.22a7.12,7.12,0,0,0-1.45-4.41,11.61,11.61,0,0,0-4.67-3.31,56.92,56.92,0,0,0-6.16-2.3q-3-.92-8.27-2.11c-2.41-.53-4.31-1-5.72-1.3s-3.32-.85-5.76-1.55-4.41-1.36-5.92-2-3.29-1.42-5.36-2.46a27.29,27.29,0,0,1-5.06-3.15,42.74,42.74,0,0,1-4.11-3.91,19.52,19.52,0,0,1-3.41-4.92,29.55,29.55,0,0,1-2.06-6,32.26,32.26,0,0,1-.8-7.32,29,29,0,0,1,5.92-18.35,34.33,34.33,0,0,1,15.39-11.18,60.52,60.52,0,0,1,21.4-3.55q23.16,0,40.6,13.73l-12.93,17.85q-12.84-9.63-27.07-9.63a26.4,26.4,0,0,0-11.83,2.31c-3.07,1.53-4.61,3.78-4.61,6.71a7,7,0,0,0,1.4,4.36,11,11,0,0,0,4.62,3.21,52.35,52.35,0,0,0,6.21,2.21c2,.57,4.78,1.22,8.32,1.95q4.62,1,7.42,1.71t7.32,2.2a51.55,51.55,0,0,1,7.37,3,45.76,45.76,0,0,1,6.21,4.06,22.34,22.34,0,0,1,5.27,5.47,30.45,30.45,0,0,1,4.61,16.24,29.92,29.92,0,0,1-6,18.64,35.76,35.76,0,0,1-16,11.78A63,63,0,0,1,1511.87,203.42Z"/><path class="cls-2" d="M227.09,11.55H136.46A48.93,48.93,0,0,1,87.54,60.48H13.48c-.11,1.38-.17,2.76-.17,4.19V225.28a53.11,53.11,0,0,0,53.12,53.11h90.63A48.94,48.94,0,0,1,206,229.46H280c.11-1.37.17-2.75.17-4.18V64.67A53.12,53.12,0,0,0,227.09,11.55Zm-21.58,173a26.09,26.09,0,0,1-17.79,5A62.7,62.7,0,0,0,147,199.75l-6.42,4.38c-11.24,7.62-18.59,19.3-22.35,32.32a26.08,26.08,0,0,1-9.78,13.94,26.4,26.4,0,0,1-37.32-6.33,26.39,26.39,0,0,1,23.55-41.3c14.52,1,29.08-2,41.17-10.22l6-4c11.38-7.75,18.95-19.52,22.8-32.76a26.24,26.24,0,0,1,10-14A26.74,26.74,0,0,1,210.82,147,26.39,26.39,0,0,1,205.51,184.52ZM221.14,92.9a26.12,26.12,0,0,1-17.8,5,62.93,62.93,0,0,0-40.72,10.22l-6.42,4.39c-11.24,7.61-18.64,19.3-22.4,32.31a26,26,0,0,1-9.74,14,26.41,26.41,0,1,1-13.81-47.68c14.57,1,29.13-2,41.17-10.22l6-4c11.37-7.75,19-19.52,22.84-32.71A26.24,26.24,0,0,1,192.05,48.9a26.69,26.69,0,0,1,34.35,6.5A26.36,26.36,0,0,1,221.14,92.9Z"/></svg>